<svg id="Layer_1" xmlns="http://www.w3.org/2000/svg" width="158" height="158"><style>.st0{fill:#fff}</style><path class="st0" d="M145.3 137.7V81.8h-5.1v55.9H98.5l-5.1 5.1H65.1l-5.1-5.1H18.3v-21.8l25.4-25.4L64 110.8l30.5-30.5 20.3 20.3 30.5-30.5V58.9c0-2-.8-3.9-2.2-5.4-1.4-1.4-3.4-2.2-5.4-2.2H20.8c-2 0-4 .8-5.4 2.2-1.4 1.4-2.2 3.4-2.2 5.4v43.2h5.1V58.9c0-.7.3-1.3.7-1.8.5-.5 1.1-.7 1.8-.7h116.9c.7 0 1.3.3 1.8.7.5.5.7 1.1.7 1.8V68l-25.4 25.4-20.3-20.3L64 103.6 43.7 83.3l-30.5 30.5v23.9H.5v7.6c0 3.4 1.3 6.6 3.7 9 2.4 2.4 5.6 3.7 9 3.7h132.1c3.4 0 6.6-1.3 9-3.7 2.4-2.4 3.7-5.6 3.7-9v-7.6h-12.7zm7.7 7.6c0 2-.8 4-2.2 5.4-1.4 1.4-3.3 2.2-5.4 2.2H13.2c-2 0-3.9-.8-5.4-2.2-1.4-1.4-2.2-3.4-2.2-5.4v-2.5h52.3l5.1 5.1h32.6l5.1-5.1H153v2.5z"/><path class="st0" d="M25.9 114.8H31V130h-5.1zm10.2-10.2h5.1V130h-5.1zm10.1 0h5.1V130h-5.1zm10.2 10.2h5.1V130h-5.1zm10.2 0h5.1V130h-5.1zm10.1-10.2h5.1V130h-5.1zm10.2-10.1H92v35.6h-5.1zm10.2 0h5.1v35.6h-5.1zm10.1 10.1h5.1V130h-5.1zm10.2 0h5.1V130h-5.1zm10.1-10.1h5.1v35.6h-5.1zM25.9 64H31v5.1h-5.1zm10.2 0h5.1v5.1h-5.1zm10.1 0h5.1v5.1h-5.1zm-5-20.8l10.6-2.1.4-1.6c.7-2.7 1.8-5.3 3.2-7.8l.9-1.4-6.7-9.3 4.6-4.6 9.3 6.7 1.4-.9c2.4-1.5 5-2.5 7.8-3.2l1.6-.4L76.4 8h6l2.1 10.6 1.6.4c2.7.7 5.3 1.8 7.7 3.2l1.4.9 9.3-6.7 4.6 4.6-6.7 9.3.9 1.4c1.5 2.4 2.5 5 3.2 7.7l.4 1.6 10.6 2.1v3h5.1v-7.2L111 36.6c-.6-2.1-1.5-4.2-2.5-6.1l7.3-10.1-10.9-10.6-10.1 7.3c-1.9-1-4-1.9-6.1-2.5L86.4 3H72.1l-2.3 11.6c-2.1.6-4.2 1.5-6.1 2.5L53.6 9.8 42.9 20.5l7.3 10.1c-1 2-1.9 4-2.5 6.1L36.1 39v7.2h5.1v-3z"/><path class="st0" d="M97.1 46.2h5.1c0-12.6-10.3-22.9-22.9-22.9-12.6 0-22.9 10.3-22.9 22.9h5.1c0-9.8 8-17.8 17.8-17.8s17.8 8 17.8 17.8z"/><path class="st0" d="M71.6 46.2h5.1c0-1.4 1.1-2.5 2.5-2.5s2.5 1.1 2.5 2.5h5.1c0-4.2-3.4-7.6-7.6-7.6-4.1 0-7.6 3.4-7.6 7.6z"/></svg>