<svg xmlns="http://www.w3.org/2000/svg" width="38" height="26" viewBox="-130 34 38 26"><path d="M-104.187 45.946l-2.202-2.202a.908.908 0 0 1 0-1.299l.175-.174a.908.908 0 0 1 1.298 0l4.04 4.039a.928.928 0 0 1 .268.65v.079a.924.924 0 0 1-.269.649l-4.039 4.039a.908.908 0 0 1-1.298 0l-.175-.174a.908.908 0 0 1 0-1.3l2.202-2.2h-16.314a.924.924 0 0 1-.65-.27.924.924 0 0 1-.268-.65v-.269c0-.237.095-.475.269-.649s.412-.27.65-.27h16.313z" fill="#010101"/><path d="M-93 35v24h-36V35h36m1-1h-38v26h38V34z"/></svg>