<svg id="Layer_1" xmlns="http://www.w3.org/2000/svg" width="188" height="158"><style>.st0{fill:#fff}</style><path class="st0" d="M144.8 12.3h6v28.2h-6zm-13.5 0h6v28.2h-6z"/><path class="st0" d="M95.6 36.4c1.1 1.1 2.6 1.7 4.2 1.7h5.8c0 3.9 1.5 7.6 4.3 10.3 2.8 2.8 6.5 4.3 10.4 4.3h43.9V47h23.4V5.8h-23.4V0h-43.9c-3.9 0-7.6 1.5-10.4 4.3-2.8 2.8-4.3 6.4-4.3 10.3h-5.8c-1.6 0-3.1.6-4.2 1.7s-1.7 2.6-1.7 4.2v2.8H41.4c-7.8 0-15.2 3-20.7 8.6-5.5 5.5-8.6 12.9-8.6 20.7 0 7.8 3.1 15.2 8.6 20.7C26.2 79 33.6 82 41.4 82h105.2c6.2 0 12.1 2.4 16.5 6.8s6.8 10.2 6.8 16.5c0 6.2-2.4 12.1-6.8 16.5s-10.2 6.8-16.5 6.8H94.1v-2.8c0-1.6-.6-3.1-1.7-4.2s-2.6-1.7-4.2-1.7h-5.7c0-3.9-1.5-7.6-4.3-10.3a14.6 14.6 0 0 0-10.4-4.3h-44v5.8H.4v41.1h23.4v5.8h43.9c3.9 0 7.6-1.5 10.4-4.3 2.8-2.8 4.3-6.4 4.3-10.3h5.7c1.6 0 3.1-.6 4.2-1.7s1.7-2.6 1.7-4.2v-2.8h52.5c7.8 0 15.2-3 20.7-8.6 5.5-5.5 8.6-12.9 8.6-20.7 0-7.8-3.1-15.2-8.6-20.7s-12.9-8.6-20.7-8.6H41.4c-6.2 0-12.1-2.4-16.5-6.8s-6.8-10.2-6.8-16.5c0-6.2 2.4-12.1 6.8-16.5s10.2-6.8 16.5-6.8h52.5v2.8c0 1.5.6 3 1.7 4.1zm68.6 4.5V29.4h17.3v11.5h-17.3zm17.4-29v11.5h-17.3V11.9h17.3zm-70 2.8c0-2.3.9-4.5 2.5-6.1 1.6-1.6 3.8-2.5 6.1-2.5h37.9v40.7h-37.9c-2.3 0-4.5-.9-6.1-2.5-1.6-1.6-2.5-3.8-2.5-6.1V14.7zm-11.7 6h5.7v11.5h-5.7V20.7zm-76.1 96.4v11.5H6.4v-11.5h17.4zm-17.4 29v-11.5h17.3v11.5H6.4zm70-2.8c0 2.3-.9 4.5-2.5 6.1-1.6 1.6-3.8 2.5-6.1 2.5h-38v-40.7h37.9c2.3 0 4.5.9 6.1 2.5 1.6 1.6 2.5 3.8 2.5 6.1v23.5zm11.7-6h-5.6v-11.5h5.6v11.5z"/><path class="st0" d="M50.6 117.5h6v28.2h-6zm-13.4 0h6v28.2h-6zm4.2-74.7v-6c-8.8 0-15.9 7.1-15.9 15.9s7.1 15.9 15.9 15.9v-6c-5.4 0-9.9-4.4-9.9-9.9 0-5.4 4.5-9.9 9.9-9.9zm105.2 72.4v6c8.8 0 15.9-7.1 15.9-15.9s-7.1-15.9-15.9-15.9v6c5.4 0 9.9 4.4 9.9 9.9-.1 5.4-4.5 9.9-9.9 9.9zm-6.7-12.9h6.7v6h-6.7zm-13.4 0h6.7v6h-6.7zm-13.5 0h6.7v6H113zM68.2 49.7h6.7v6h-6.7zm-13.4 0h6.7v6h-6.7zm-13.4 0h6.7v6h-6.7z"/></svg>