<svg xmlns="http://www.w3.org/2000/svg" width="278" height="225"><path d="M261.6 44.6h-46.2c1.2-1.9 1.9-4.1 1.9-6.5 0-6.7-5.4-12.1-12.1-12.1h-17.5V12.1c0-6.7-5.4-12.1-12.1-12.1h-73.3c-6.7 0-12.1 5.4-12.1 12.1V26H72.8c-6.7 0-12.1 5.4-12.1 12.1 0 2.4.7 4.6 1.9 6.5H16.4C7.6 44.6.5 51.8.5 60.5v50.4c0 4.5 1.8 8.5 4.8 11.4v84.8c0 8.5 7 15.5 15.5 15.5h87c2.4 1.5 5.2 2.4 8.2 2.4h46.1c3 0 5.8-.9 8.2-2.4h87c8.5 0 15.5-7 15.5-15.5v-84.8c3-2.9 4.8-6.9 4.8-11.4V60.6c-.1-8.8-7.2-16-16-16zM72.8 33.4h24.8V12.1c0-2.6 2.1-4.7 4.7-4.7h73.3c2.6 0 4.7 2.1 4.7 4.7v21.3h24.8c2.6 0 4.7 2.1 4.7 4.7s-2.1 4.7-4.7 4.7h-29.6c-2.6 0-4.7-2.1-4.7-4.7V16.8H107v21.3c0 2.6-2.1 4.7-4.7 4.7H72.8c-2.6 0-4.7-2.1-4.7-4.7s2.1-4.7 4.7-4.7zm92.7 11.2h-53c1.2-1.9 1.9-4.1 1.9-6.5V24.2h49.1v13.9c.1 2.4.8 4.6 2 6.5zm4.7 164.9c0 4.5-3.7 8.1-8.1 8.1H116c-4.5 0-8.1-3.7-8.1-8.1v-21.6c1.6.6 3.4.9 5.3 1l24.1 11.5c.5.2 1 .4 1.6.4.5 0 1.1-.1 1.6-.4l24.1-11.5c2-.1 3.9-.5 5.7-1.1v21.7zm-6.5-27.9c-.5 0-1.1.1-1.6.4l-23.3 11-23.2-11.1c-.5-.2-1-.4-1.6-.4-4.8 0-8.1-2.7-8.1-5.1v-7.9c0-2.4 3.3-5.1 8.1-5.1h49.6c4.8 0 8.1 2.7 8.1 5.1v7.9c.1 2.5-3.2 5.2-8 5.2zm93.5 33.7h-80.8c.7-1.8 1.1-3.7 1.1-5.8V182c1-1.7 1.6-3.5 1.6-5.5v-7.9c0-7-6.8-12.4-15.5-12.4H114c-8.7 0-15.5 5.5-15.5 12.4v7.9c0 2.2.7 4.2 1.9 6v27c0 2 .4 4 1.1 5.8H20.8c-4.5 0-8.1-3.7-8.1-8.1v-80.7c1.2.3 2.5.5 3.8.5h25.6v10.4h-5.8c-2 0-3.7 1.6-3.7 3.7v15.4c0 2 1.6 3.7 3.7 3.7h5.8v25.3c0 8.5 7 15.5 15.5 15.5H60c8.5 0 15.5-7 15.5-15.5V160h5.8c2 0 3.7-1.6 3.7-3.7v-15.4c0-2-1.6-3.7-3.7-3.7h-5.8v-10.4h126.2v10.4h-5.8c-2 0-3.7 1.6-3.7 3.7v15.4c0 2 1.6 3.7 3.7 3.7h5.8v25.3c0 8.5 7 15.5 15.5 15.5h2.4c8.5 0 15.5-7 15.5-15.5V160h5.8c2 0 3.7-1.6 3.7-3.7v-15.4c0-2-1.6-3.7-3.7-3.7H235v-10.4h26.6c1.3 0 2.6-.2 3.8-.5V207c0 4.6-3.7 8.3-8.2 8.3zM77.5 144.6v8H40v-8h37.5zm159.6 0v8h-37.6v-8h37.6zm33.1-33.7c0 4.7-3.8 8.6-8.6 8.6H235v-2.1l5.1-5.1c6-6 6-15.9 0-21.9l-10.9-10.9c-2.9-2.9-6.8-4.5-11-4.5-4.1 0-8 1.6-11 4.5l-10.9 10.9c-6 6-6 15.9 0 21.9l5.1 5.1v2.1h-126v-2.1l5.1-5.1c6-6 6-15.9 0-21.9L69.7 79.5c-2.9-2.9-6.8-4.5-11-4.5-4.1 0-8 1.6-11 4.5L36.9 90.4c-2.9 2.9-4.5 6.8-4.5 11 0 4.1 1.6 8 4.5 11l5.1 5.1v2.1H16.4c-4.7 0-8.6-3.8-8.6-8.6V60.6c0-4.7 3.8-8.6 8.6-8.6h245.2c4.7 0 8.6 3.9 8.6 8.6v50.3z" fill="#362e7a"/><path d="M68.1 160v25.3c0 4.5-3.7 8.1-8.1 8.1h-2.4c-4.5 0-8.1-3.7-8.1-8.1V160h18.6zm-18.7-23.9v-9.3h18.7v9.3zm19.8-22.8c-.7.7-1.1 1.6-1.1 2.6v3.6H49.4v-3.6c0-1-.4-1.9-1.1-2.6l-6.2-6.2c-1.5-1.5-2.4-3.6-2.4-5.8 0-2.2.8-4.2 2.4-5.8L53 84.7c1.5-1.5 3.6-2.4 5.8-2.4 2.2 0 4.2.8 5.8 2.4l10.9 10.9c3.2 3.2 3.2 8.3 0 11.5l-6.3 6.2zM227.7 160v25.3c0 4.5-3.7 8.1-8.1 8.1h-2.4c-4.5 0-8.1-3.7-8.1-8.1V160h18.6zM209 136.1v-9.3h18.7v9.3zm19.7-22.8c-.7.7-1.1 1.6-1.1 2.6v3.6H209v-3.6c0-1-.4-1.9-1.1-2.6l-6.2-6.2c-3.2-3.2-3.2-8.3 0-11.5l10.9-10.9c1.5-1.5 3.6-2.4 5.8-2.4 2.2 0 4.2.8 5.8 2.4L235 95.6c3.2 3.2 3.2 8.3 0 11.5l-6.3 6.2z" fill="#00aeef"/></svg>