<svg xmlns="http://www.w3.org/2000/svg" width="22" height="22"><path d="M15 22c-1.3 0-2.5-.3-3.6-1C7.1 18.5 3.5 14.9 1 10.6.3 9.5 0 8.3 0 7c0-1.9.7-3.7 2.1-5 1.3-1.3 3-2 4.8-2h.3C8 0 8.6.4 8.8 1.1l1.9 5c.2.6.1 1.3-.4 1.8l-.8.8c1.1 1.4 2.4 2.7 3.8 3.8l.9-.9c.5-.5 1.2-.6 1.8-.4l5 1.9c.7.2 1.1.9 1.1 1.6v.3c0 1.8-.7 3.5-2 4.8-1.4 1.5-3.2 2.2-5.1 2.2zM6.9 2.1c-1.3 0-2.4.5-3.3 1.4-1 .9-1.5 2.2-1.5 3.5 0 .9.2 1.8.7 2.5 2.3 4 5.7 7.3 9.6 9.6.8.4 1.6.7 2.5.7 1.3 0 2.6-.5 3.5-1.5.9-.9 1.4-2.1 1.4-3.3l-4.4-1.7-1.9 1.9-.7-.5c-2.2-1.5-4.1-3.4-5.6-5.6l-.5-.6 1.9-1.9-1.7-4.5z" fill="#4266af"/></svg>