<svg id="Layer_1" xmlns="http://www.w3.org/2000/svg" width="210" height="225"><style>.st0{fill:#362e7a}.st1{fill:#00aeef}</style><path class="st0" d="M91.2 73.8c2.2 0 3.6-1.4 3.6-3.6V60.1c0-2.2-1.4-3.6-3.6-3.6s-3.6 1.4-3.6 3.6v10.1c0 2.1 1.4 3.6 3.6 3.6z"/><path class="st0" d="M182 121.3c-5.8-44.3-42.5-77.8-87.2-79.6V32h22.3c2.2 0 3.6-1.4 3.6-3.6V3.9c0-2.2-1.4-3.6-3.6-3.6H66c-2.2 0-3.6 1.4-3.6 3.6V28c0 2.2 1.4 3.6 3.6 3.6h21.6v9.7C38.6 43.5-.3 83.8-.3 133.2c0 50.4 41.1 91.5 91.5 91.5 14 0 27.7-3.2 40-9.4 6.5 3.4 13.5 5.3 21.2 5.8 7.2.2 17.7-1.1 30.7-6.9 3.3-1.8 6.4-4 9.1-6.8.2-.2.3-.4.5-.6 10.4-9.7 16.9-23.3 16.9-38.7.1-20.1-11-37.8-27.6-46.8zM69.6 24.4V7.5h43.9v16.9H69.6zm21.6 192.7c-46.5 0-84.3-37.5-84.3-83.9 0-46.5 37.8-84.3 84.3-84.3 41.1 0 75.6 29.5 82.8 69.2-5.4-1.8-11.5-2.9-17.7-2.9-29.2 0-53.3 23.8-53.3 53.3 0 17.3 8.3 32.4 20.9 42.1-10.4 4.4-21.2 6.5-32.7 6.5zm65.2-2.8c-25.6 0-46.1-20.5-46.1-46.1 0-25.2 20.5-46.1 46.1-46.1s46.1 20.9 46.1 46.1-20.5 46.1-46.1 46.1z"/><path class="st0" d="M91.2 192.3c-2.2 0-3.6 1.4-3.6 3.6V206c0 2.2 1.4 3.6 3.6 3.6s3.6-1.4 3.6-3.6v-10.1c0-2.2-1.8-3.6-3.6-3.6zm-59.4-59.1c0-2.2-1.4-3.6-3.6-3.6H18.1c-2.2 0-3.6 1.4-3.6 3.6s1.4 3.6 3.6 3.6h10.1c2.1 0 3.6-1.8 3.6-3.6zm89.3-51.1c1.8 1.1 4 .4 5-1.4l5-8.6c1.1-1.8.4-4-1.4-5-1.8-1.1-4-.4-5 1.4l-5 8.6c-.8 1.7 0 3.9 1.4 5zM61 184c-1.8-1.1-4-.4-5 1.4l-5 8.6c-1.1 1.8-.4 4 1.4 5 1.8 1.1 4 .4 5-1.4l5-8.6c1.1-1.8.4-3.9-1.4-5zM26.4 99l8.6 5c1.8 1.1 4 .4 5-1.4 1.1-1.8.4-4-1.4-5l-8.6-5c-1.8-1.1-4-.4-5 1.4-.8 1.8-.1 3.9 1.4 5zm120.3 4.7l8.6-5.4c1.8-1.1 2.2-3.2 1.1-5-1.1-1.8-3.2-2.2-5-1.1l-8.6 5.4c-1.8 1.1-2.2 3.2-1.1 5 1 1.4 3.2 1.8 5 1.1zm-111 59l-8.6 5.4c-1.8 1.1-2.2 3.2-1.1 5 1.1 1.8 3.2 2.2 5 1.1l8.6-5.4c1.8-1.1 2.2-3.2 1.1-5-1-1.8-3.5-2.1-5-1.1zm24.5-80.3c1.8-1.1 2.2-3.2 1.1-5l-5-8.6c-1.1-1.8-3.2-2.2-5-1.1-1.8 1.1-2.2 3.2-1.1 5l5.4 8.6c.7 1.8 3.2 2.2 4.6 1.1zm84.7 88.6c3.2-3.2 5.4-5.8 6.5-7.9 1.1-2.2 1.8-4.3 1.8-6.5 0-4-1.4-7.2-4.3-9.7-2.9-2.5-6.1-3.6-9.7-3.6-3.6 0-6.8.7-9 2.2-2.5 1.4-4.3 3.6-6.5 6.5l6.1 3.6c2.5-3.6 5.4-5.8 9-5.8 2.2 0 4 .7 5 1.8 1.4 1.1 2.2 2.9 2.2 4.7 0 1.8-.7 3.6-1.8 5.4-1.4 1.8-3.2 4-6.5 7.2l-13.3 13.7v6.5h30.3v-7.2h-20.2l10.4-10.9zm41.4 0v-8.3h-6.8v8.3h-10.8l16.2-26.3h-8.3L160.4 171v6.9h19.1V189h6.8v-11.1h5.4V171z"/><path class="st1" d="M69.6 7.5h43.9v16.9H69.6z"/><path class="st0" d="M94.8 118.4V85.3c0-2.2-1.4-3.6-3.6-3.6s-3.6 1.4-3.6 3.6v33.1c-6.5 1.8-11.2 7.6-11.2 14.8 0 2.9.7 5.4 2.2 7.6l-22.7 21.6c-1.4 1.4-1.4 3.6 0 5s3.6 1.4 5 0l22.3-21.6c2.2 1.4 5 2.5 7.9 2.5 8.3 0 14.8-6.8 14.8-15.1.1-7.2-4.6-13.3-11.1-14.8zm-3.7 22.9c-4.4 0-8-3.6-8-8 0-3.9 2.8-7.2 6.6-7.9.5-.1 1-.2 1.6-.2 1.8 0 3.4.6 4.7 1.7 1.9 1.5 3.2 3.8 3.2 6.4-.1 4.5-3.7 8-8.1 8z"/><circle class="st1" cx="91.1" cy="133.3" r="8"/></svg>