<svg id="Layer_1" xmlns="http://www.w3.org/2000/svg" width="300" height="92"><style>.st0{fill:#fff}</style><path class="st0" d="M149 57.5h-5.6V41h-6.6v16.5h-5.6V35.9h17.9v21.6zm14.3-1.8c-5.6-.2-10.2-2.4-10.2-9.1 0-6.7 4.6-8.8 10.1-9v-1.8h5.3v1.8c5.6.2 10.1 2.3 10.1 9s-4.6 8.9-10.2 9.1v1.8h-5.2v-1.8zm.1-5v-8c-2.4.1-4.6.9-4.6 4s2.3 3.8 4.6 4zm5.1-8v8c2.2-.1 4.6-.9 4.6-4s-2.2-3.9-4.6-4zm26.8 1.2h-5.4c.8-5.8 5.7-8.2 10.1-8.2 5.5 0 11 3.7 11.1 11 0 7.3-5.6 11-11.1 11-4.6 0-9.4-2.4-10.2-8.5h5.4c.6 2.3 2.5 3.5 4.8 3.5 2.4 0 4.3-1.5 5-3.6h-7v-4.6h7.1c-.7-2.3-2.6-3.7-5.1-3.7-2.3-.1-3.9.9-4.7 3.1zm19.9 13.6V35.9h5.6v8.2h.4c5.5 0 5.2-4.1 5.2-8.2h5.7c0 4.4.1 8.5-4.2 11.2l5.8 9.5v.9h-6.1l-4.7-8.3c-.7.1-1.4.1-2.1.1v8.2h-5.6zm35.9-11.2c1.8.9 2.6 2.5 2.6 4.4 0 3.8-2.3 6.8-6.7 6.8h-10.1V35.9h9.2c3.7 0 6.7 2.9 6.7 6.6 0 1.3-.6 2.9-1.7 3.8zm-8.9-5.5v3.5h3.5c2.2 0 2.2-3.5 0-3.5h-3.5zm0 8.1v3.7h4.4c2.2 0 2.2-3.7 0-3.7h-4.4zm17.8 8.6h-2V35.9h5.6v10.6l10.9-10.7h2v21.6h-5.7V46.9L260 57.5zm40 0h-5.6V41h-6.6v16.5h-5.6V35.9h17.9v21.6zM48.4 59H27.1h21.3zm0-24.6H27.1h21.3zM66.5 1.1c-20.9 0-38.4 14.1-43.8 33.3h31.1c3.2-3.4 7.8-5.5 12.8-5.5 9.1 0 16.6 6.8 17.6 15.6v.2H73.6c0-.1 0-.2-.1-.2-.9-3-3.7-5.2-7-5.2-4 0-7.3 3.3-7.3 7.3s3.3 7.3 7.3 7.3c3.3 0 6.1-2.2 7-5.2v-.1h10.7v.1c-1 8.8-8.5 15.6-17.6 15.6-4.9 0-9.4-2-12.6-5.3l-.1-.1H22.8c5.4 19.2 23 33.3 43.8 33.3 25.1 0 45.6-20.4 45.6-45.6S91.7 1.1 66.5 1.1zm0 48.7c-1.7 0-3.1-1.4-3.1-3.1s1.4-3.1 3.1-3.1 3.1 1.4 3.1 3.1-1.3 3.1-3.1 3.1zm0 38.2C49.6 88 35 77.8 28.6 63.2H52c3.9 3.4 8.9 5.4 14.4 5.4 11.4 0 20.8-8.7 21.9-19.8v-.1h10.2v-3.9H88.3v-.2c-1.1-11.1-10.5-19.8-21.9-19.8-5.5 0-10.6 2.1-14.4 5.4H28.7C35.1 15.6 49.6 5.3 66.5 5.3c22.8 0 41.3 18.5 41.3 41.3S89.3 88 66.5 88z"/><path class="st0" d="M47.1 74.9c2.5 1.7 5.1 3.1 7.9 4.1l1.1-3c-2.5-.9-4.9-2.1-7.2-3.7l-1.8 2.6zM60 77l-.7 3.1c2.4.5 4.8.8 7.2.8 6.9 0 13.5-2 19.2-5.9l-1.8-2.6C77 77.1 68.1 78.8 60 77zM0 44.8h46.6v3.9H0zm14.5-7.2h38.1v3.9H14.5zM14.3 52h37.5v3.9H14.3z"/><path class="st0" d="M0 44.8h46.6v3.9H0zm14.5-7.2h38.1v3.9H14.5zM14.3 52h37.5v3.9H14.3z"/></svg>